{"asset":{"version":"2.0","generator":"babylon.js glTF exporter for   v"},"scene":0,"scenes":[{"nodes":[0,1],"extensions":{}}],"nodes":[{"mesh":0,"translation":[0.0,35.1097641,1.51254427],"rotation":[0.0,0.0,0.0,1.0],"scale":[1.0,1.0,1.0],"name":"MianSha"},{"translation":[0.0,0.0,0.0],"rotation":[0.0,0.0,0.0,1.0],"scale":[1.0,1.0,1.0],"name":"Default light"}],"meshes":[{"primitives":[{"attributes":{"POSITION":1,"NORMAL":2,"TEXCOORD_0":3},"indices":0,"mode":4,"material":0}],"name":"MianSha"}],"accessors":[{"bufferView":0,"componentType":5123,"count":3840,"type":"SCALAR","name":"accessorIndices"},{"bufferView":1,"componentType":5126,"count":3840,"max":[10.9674377,1.11100388,7.8983674],"min":[-10.5880089,-35.034523,-1.74346054],"type":"VEC3","name":"accessorPositions"},{"bufferView":1,"byteOffset":46080,"componentType":5126,"count":3840,"type":"VEC3","name":"accessorNormals"},{"bufferView":2,"componentType":5126,"count":3840,"type":"VEC2","name":"accessorUVs"}],"bufferViews":[{"buffer":0,"byteLength":7680,"name":"bufferViewScalar"},{"buffer":0,"byteOffset":7680,"byteLength":92160,"byteStride":12,"name":"bufferViewFloatVec3"},{"buffer":0,"byteOffset":99840,"byteLength":30720,"byteStride":8,"name":"bufferViewFloatVec2"}],"buffers":[{"uri":"MianSha.bin","byteLength":130560}],"materials":[{"pbrMetallicRoughness":{"baseColorFactor":[1.0,1.0,1.0,1.0],"baseColorTexture":{"index":0,"texCoord":0},"metallicFactor":0.0,"roughnessFactor":0.450053632},"emissiveFactor":[0.0,0.0,0.0],"alphaMode":"BLEND","name":"MianSha"}],"textures":[{"sampler":0,"source":0,"name":"MianSha_baseColor.png"}],"images":[{"uri":"MianSha_baseColor.png"}],"samplers":[{"magFilter":9729,"minFilter":9987,"wrapS":10497,"wrapT":10497}]}