{"asset":{"version":"2.0","generator":"babylon.js glTF exporter for   v"},"scene":0,"scenes":[{"nodes":[0,1],"extensions":{}}],"nodes":[{"mesh":0,"translation":[0.0,129633.828,0.005666475],"rotation":[0.5,-0.50000006,0.5,0.5],"scale":[36.31137,36.31137,36.31138],"name":"default009"},{"translation":[0.0,0.0,0.0],"rotation":[0.0,0.0,0.0,1.0],"scale":[1.0,1.0,1.0],"name":"Default light"}],"meshes":[{"primitives":[{"attributes":{"POSITION":1,"NORMAL":2,"TEXCOORD_0":3},"indices":0,"mode":4,"material":0}],"name":"default009"}],"accessors":[{"bufferView":0,"componentType":5123,"count":17100,"type":"SCALAR","name":"accessorIndices"},{"bufferView":1,"componentType":5126,"count":17100,"max":[3450.75757,3450.76,3450.76],"min":[-3450.75757,-3450.7605,-3450.7605],"type":"VEC3","name":"accessorPositions"},{"bufferView":1,"byteOffset":205200,"componentType":5126,"count":17100,"type":"VEC3","name":"accessorNormals"},{"bufferView":2,"componentType":5126,"count":17100,"type":"VEC2","name":"accessorUVs"}],"bufferViews":[{"buffer":0,"byteLength":34200,"name":"bufferViewScalar"},{"buffer":0,"byteOffset":34200,"byteLength":410400,"byteStride":12,"name":"bufferViewFloatVec3"},{"buffer":0,"byteOffset":444600,"byteLength":136800,"byteStride":8,"name":"bufferViewFloatVec2"}],"buffers":[{"uri":"ShaiZi.bin","byteLength":581400}],"materials":[{"pbrMetallicRoughness":{"baseColorFactor":[1.0,1.0,1.0,1.0],"baseColorTexture":{"index":0,"texCoord":0},"metallicFactor":0.0,"roughnessFactor":0.450053632},"emissiveFactor":[0.0,0.0,0.0],"alphaMode":"BLEND","name":"01 - Default"}],"textures":[{"sampler":0,"source":0,"name":"01_Default_baseColor.png"}],"images":[{"uri":"01_Default_baseColor.png"}],"samplers":[{"magFilter":9729,"minFilter":9987,"wrapS":10497,"wrapT":10497}]}
