{"asset":{"version":"2.0","generator":"babylon.js glTF exporter for   v"},"scene":0,"scenes":[{"nodes":[0,1,19],"extensions":{}}],"nodes":[{"skin":0,"mesh":0,"translation":[0.0,0.0,0.0],"rotation":[0.0,0.0,0.0,1.0],"scale":[1.0,1.0,1.0],"name":"Hair"},{"children":[2,5,12],"translation":[12.0938349,8.24771E-07,2.04518437E-06],"rotation":[4.61486422E-08,-0.6123717,-5.95777543E-08,0.79057],"scale":[1.00000048,1.0,1.00000048],"name":"Bone002"},{"children":[3],"translation":[6.321653,1.13686838E-13,-1.90734863E-06],"rotation":[-7.108729E-15,0.0304689724,8.885906E-16,0.9995358],"scale":[0.999999642,1.0,0.999999642],"name":"Bone003"},{"children":[4],"translation":[8.742515,0.0,-2.861023E-06],"rotation":[-1.23463374E-15,-0.6946106,-2.46926812E-15,0.719386],"scale":[1.00000012,1.0,1.00000012],"name":"Bone004"},{"translation":[6.14423,7.95807864E-13,-1.71661377E-05],"rotation":[-8.881784E-16,0.0,3.55271453E-15,1.0],"scale":[0.9999998,1.0,0.9999998],"name":"Bone005"},{"children":[6],"translation":[6.32165575,9.536743E-07,1.90734863E-06],"rotation":[-0.251627266,0.239302665,-0.6608206,0.6653827],"scale":[1.0,0.999999642,0.9999996],"name":"Bone006"},{"children":[7],"translation":[7.48818874,0.0,-2.861023E-06],"rotation":[0.019641133,0.193988115,-0.109254606,0.974703252],"scale":[1.00000024,1.0,1.0],"name":"Bone007"},{"children":[8],"translation":[3.038762,-5.531311E-05,-2.38418579E-07],"rotation":[0.03762345,0.1590464,-0.06340809,0.9845142],"scale":[0.9999999,0.99999994,0.9999998],"name":"Bone008"},{"children":[9],"translation":[4.73348331,0.0,4.76837158E-07],"rotation":[1.87012142E-06,-0.00523014367,-0.00015565964,0.9999863],"scale":[1.00000036,1.0,1.00000012],"name":"Bone009"},{"children":[10],"translation":[4.59470844,0.0,9.536743E-07],"rotation":[9.354183E-07,-0.0281413421,3.46142078E-05,0.999604046],"scale":[0.99999994,1.0,1.0],"name":"Bone010"},{"children":[11],"translation":[4.212637,0.0,5.24520874E-06],"rotation":[-5.3982305E-05,0.019532755,-0.000114119968,0.9998092],"scale":[1.00000012,0.99999994,1.00000012],"name":"Bone011"},{"translation":[3.0210247,-1.90734863E-06,1.43051147E-06],"rotation":[0.0,-1.11758709E-08,7.45058149E-09,1.0],"scale":[1.0,0.99999994,0.99999994],"name":"Bone012"},{"children":[13],"translation":[6.32165575,-1.96678229E-11,0.0],"rotation":[0.671998858,0.65329957,-0.220039353,-0.2705548],"scale":[0.9999999,0.999999464,0.999999464],"name":"Bone013"},{"children":[14],"translation":[7.27715158,0.0,9.298325E-06],"rotation":[-0.0253265984,-0.268669844,-0.126135349,0.954602],"scale":[1.00000048,1.0,1.00000036],"name":"Bone014"},{"children":[15],"translation":[3.828517,0.0,1.90734863E-06],"rotation":[-0.0270180181,-0.08118757,-0.0436547659,0.995375752],"scale":[0.9999998,1.00000024,0.9999999],"name":"Bone015"},{"children":[16],"translation":[4.29812574,0.0,-4.76837158E-07],"rotation":[-0.000111047229,-0.0216964632,-0.0001246105,0.9997646],"scale":[1.0,1.0,1.00000012],"name":"Bone016"},{"children":[17],"translation":[4.02269,0.0,2.38418579E-06],"rotation":[0.000132557558,0.008030337,0.00015845662,0.9999677],"scale":[1.00000024,0.999999762,1.00000024],"name":"Bone017"},{"children":[18],"translation":[4.228039,0.0,-4.76837158E-07],"rotation":[-1.572154E-06,-0.01016626,8.414377E-05,0.999948263],"scale":[0.999999642,0.99999994,0.9999995],"name":"Bone018"},{"translation":[3.84136963,0.0,-5.48362732E-06],"rotation":[-7.45057971E-09,-1.02445465E-08,-7.45057971E-09,1.0],"scale":[1.00000012,1.0,1.00000024],"name":"Bone019"},{"translation":[0.0,0.0,0.0],"rotation":[0.0,0.0,0.0,1.0],"scale":[1.0,1.0,1.0],"name":"Default light"}],"meshes":[{"primitives":[{"attributes":{"POSITION":1,"NORMAL":2,"COLOR_0":3,"TEXCOORD_0":4,"JOINTS_0":5,"WEIGHTS_0":6},"indices":0,"mode":4,"material":0}],"name":"Hair"}],"accessors":[{"bufferView":0,"componentType":5123,"count":13044,"type":"SCALAR","name":"accessorIndices"},{"bufferView":1,"componentType":5126,"count":13044,"max":[23.50487,24.237,15.16324],"min":[-23.5049133,0.877200961,-15.9801989],"type":"VEC3","name":"accessorPositions"},{"bufferView":1,"byteOffset":156528,"componentType":5126,"count":13044,"type":"VEC3","name":"accessorNormals"},{"bufferView":2,"componentType":5126,"count":13044,"type":"VEC4","name":"accessorColors"},{"bufferView":3,"componentType":5126,"count":13044,"type":"VEC2","name":"accessorUVs"},{"bufferView":4,"componentType":5123,"count":13044,"type":"VEC4","name":"accessorJoints"},{"bufferView":2,"byteOffset":208704,"componentType":5126,"count":13044,"type":"VEC4","name":"accessorWeights"},{"bufferView":5,"componentType":5126,"count":18,"type":"MAT4","name":"accessorInverseBindMatrices"},{"bufferView":6,"componentType":5126,"count":221,"max":[7.33333349],"min":[0.0],"type":"SCALAR","name":"accessorAnimationInput"},{"bufferView":7,"componentType":5126,"count":221,"type":"VEC3","name":"accessorAnimationPositions"},{"bufferView":8,"componentType":5126,"count":221,"type":"VEC4","name":"accessorAnimationRotations"},{"bufferView":7,"byteOffset":2652,"componentType":5126,"count":221,"type":"VEC3","name":"accessorAnimationScales"},{"bufferView":6,"byteOffset":884,"componentType":5126,"count":213,"max":[7.33333349],"min":[0.0],"type":"SCALAR","name":"accessorAnimationInput"},{"bufferView":7,"byteOffset":5304,"componentType":5126,"count":213,"type":"VEC3","name":"accessorAnimationPositions"},{"bufferView":8,"byteOffset":3536,"componentType":5126,"count":213,"type":"VEC4","name":"accessorAnimationRotations"},{"bufferView":7,"byteOffset":7860,"componentType":5126,"count":213,"type":"VEC3","name":"accessorAnimationScales"},{"bufferView":6,"byteOffset":1736,"componentType":5126,"count":214,"max":[7.33333349],"min":[0.0],"type":"SCALAR","name":"accessorAnimationInput"},{"bufferView":7,"byteOffset":10416,"componentType":5126,"count":214,"type":"VEC3","name":"accessorAnimationPositions"},{"bufferView":8,"byteOffset":6944,"componentType":5126,"count":214,"type":"VEC4","name":"accessorAnimationRotations"},{"bufferView":7,"byteOffset":12984,"componentType":5126,"count":214,"type":"VEC3","name":"accessorAnimationScales"},{"bufferView":6,"byteOffset":2592,"componentType":5126,"count":217,"max":[7.33333349],"min":[0.0],"type":"SCALAR","name":"accessorAnimationInput"},{"bufferView":7,"byteOffset":15552,"componentType":5126,"count":217,"type":"VEC3","name":"accessorAnimationPositions"},{"bufferView":8,"byteOffset":10368,"componentType":5126,"count":217,"type":"VEC4","name":"accessorAnimationRotations"},{"bufferView":7,"byteOffset":18156,"componentType":5126,"count":217,"type":"VEC3","name":"accessorAnimationScales"},{"bufferView":6,"byteOffset":3460,"componentType":5126,"count":221,"max":[7.33333349],"min":[0.0],"type":"SCALAR","name":"accessorAnimationInput"},{"bufferView":7,"byteOffset":20760,"componentType":5126,"count":221,"type":"VEC3","name":"accessorAnimationPositions"},{"bufferView":8,"byteOffset":13840,"componentType":5126,"count":221,"type":"VEC4","name":"accessorAnimationRotations"},{"bufferView":7,"byteOffset":23412,"componentType":5126,"count":221,"type":"VEC3","name":"accessorAnimationScales"},{"bufferView":6,"byteOffset":4344,"componentType":5126,"count":215,"max":[7.33333349],"min":[0.0],"type":"SCALAR","name":"accessorAnimationInput"},{"bufferView":7,"byteOffset":26064,"componentType":5126,"count":215,"type":"VEC3","name":"accessorAnimationPositions"},{"bufferView":8,"byteOffset":17376,"componentType":5126,"count":215,"type":"VEC4","name":"accessorAnimationRotations"},{"bufferView":7,"byteOffset":28644,"componentType":5126,"count":215,"type":"VEC3","name":"accessorAnimationScales"},{"bufferView":6,"byteOffset":5204,"componentType":5126,"count":218,"max":[7.33333349],"min":[0.0],"type":"SCALAR","name":"accessorAnimationInput"},{"bufferView":7,"byteOffset":31224,"componentType":5126,"count":218,"type":"VEC3","name":"accessorAnimationPositions"},{"bufferView":8,"byteOffset":20816,"componentType":5126,"count":218,"type":"VEC4","name":"accessorAnimationRotations"},{"bufferView":7,"byteOffset":33840,"componentType":5126,"count":218,"type":"VEC3","name":"accessorAnimationScales"},{"bufferView":6,"byteOffset":6076,"componentType":5126,"count":219,"max":[7.33333349],"min":[0.0],"type":"SCALAR","name":"accessorAnimationInput"},{"bufferView":7,"byteOffset":36456,"componentType":5126,"count":219,"type":"VEC3","name":"accessorAnimationPositions"},{"bufferView":8,"byteOffset":24304,"componentType":5126,"count":219,"type":"VEC4","name":"accessorAnimationRotations"},{"bufferView":7,"byteOffset":39084,"componentType":5126,"count":219,"type":"VEC3","name":"accessorAnimationScales"},{"bufferView":6,"byteOffset":6952,"componentType":5126,"count":221,"max":[7.33333349],"min":[0.0],"type":"SCALAR","name":"accessorAnimationInput"},{"bufferView":7,"byteOffset":41712,"componentType":5126,"count":221,"type":"VEC3","name":"accessorAnimationPositions"},{"bufferView":8,"byteOffset":27808,"componentType":5126,"count":221,"type":"VEC4","name":"accessorAnimationRotations"},{"bufferView":7,"byteOffset":44364,"componentType":5126,"count":221,"type":"VEC3","name":"accessorAnimationScales"}],"bufferViews":[{"buffer":0,"byteLength":26088,"name":"bufferViewScalar"},{"buffer":0,"byteOffset":26088,"byteLength":313056,"byteStride":12,"name":"bufferViewFloatVec3"},{"buffer":0,"byteOffset":339144,"byteLength":417408,"byteStride":16,"name":"bufferViewFloatVec4"},{"buffer":0,"byteOffset":756552,"byteLength":104352,"byteStride":8,"name":"bufferViewFloatVec2"},{"buffer":0,"byteOffset":860904,"byteLength":104352,"byteStride":8,"name":"bufferViewUnsignedShortVec4"},{"buffer":0,"byteOffset":965256,"byteLength":1152,"name":"bufferViewFloatMat4"},{"buffer":0,"byteOffset":966408,"byteLength":7836,"name":"bufferViewAnimationFloatScalar"},{"buffer":0,"byteOffset":974244,"byteLength":47016,"name":"bufferViewAnimationFloatVec3"},{"buffer":0,"byteOffset":1021260,"byteLength":31344,"name":"bufferViewAnimationFloatVec4"}],"buffers":[{"uri":"Test_bone.bin","byteLength":1052604}],"materials":[{"pbrMetallicRoughness":{"baseColorFactor":[1.0,1.0,1.0,1.0],"baseColorTexture":{"index":0,"texCoord":0},"metallicFactor":0.0,"roughnessFactor":0.450053632},"emissiveFactor":[0.0,0.0,0.0],"alphaMode":"BLEND","name":"Hair"}],"textures":[{"sampler":0,"source":0,"name":"Hair_baseColor.png"}],"images":[{"uri":"Hair_baseColor.png"}],"samplers":[{"magFilter":9729,"minFilter":9987,"wrapS":10497,"wrapT":10497}],"animations":[{"channels":[{"sampler":0,"target":{"node":1,"path":"translation"}},{"sampler":1,"target":{"node":1,"path":"rotation"}},{"sampler":2,"target":{"node":1,"path":"scale"}},{"sampler":3,"target":{"node":7,"path":"translation"}},{"sampler":4,"target":{"node":7,"path":"rotation"}},{"sampler":5,"target":{"node":7,"path":"scale"}},{"sampler":6,"target":{"node":8,"path":"translation"}},{"sampler":7,"target":{"node":8,"path":"rotation"}},{"sampler":8,"target":{"node":8,"path":"scale"}},{"sampler":9,"target":{"node":9,"path":"translation"}},{"sampler":10,"target":{"node":9,"path":"rotation"}},{"sampler":11,"target":{"node":9,"path":"scale"}},{"sampler":12,"target":{"node":10,"path":"translation"}},{"sampler":13,"target":{"node":10,"path":"rotation"}},{"sampler":14,"target":{"node":10,"path":"scale"}},{"sampler":15,"target":{"node":14,"path":"translation"}},{"sampler":16,"target":{"node":14,"path":"rotation"}},{"sampler":17,"target":{"node":14,"path":"scale"}},{"sampler":18,"target":{"node":15,"path":"translation"}},{"sampler":19,"target":{"node":15,"path":"rotation"}},{"sampler":20,"target":{"node":15,"path":"scale"}},{"sampler":21,"target":{"node":16,"path":"translation"}},{"sampler":22,"target":{"node":16,"path":"rotation"}},{"sampler":23,"target":{"node":16,"path":"scale"}},{"sampler":24,"target":{"node":17,"path":"translation"}},{"sampler":25,"target":{"node":17,"path":"rotation"}},{"sampler":26,"target":{"node":17,"path":"scale"}}],"samplers":[{"input":8,"interpolation":"LINEAR","output":9},{"input":8,"interpolation":"LINEAR","output":10},{"input":8,"interpolation":"LINEAR","output":11},{"input":12,"interpolation":"LINEAR","output":13},{"input":12,"interpolation":"LINEAR","output":14},{"input":12,"interpolation":"LINEAR","output":15},{"input":16,"interpolation":"LINEAR","output":17},{"input":16,"interpolation":"LINEAR","output":18},{"input":16,"interpolation":"LINEAR","output":19},{"input":20,"interpolation":"LINEAR","output":21},{"input":20,"interpolation":"LINEAR","output":22},{"input":20,"interpolation":"LINEAR","output":23},{"input":24,"interpolation":"LINEAR","output":25},{"input":24,"interpolation":"LINEAR","output":26},{"input":24,"interpolation":"LINEAR","output":27},{"input":28,"interpolation":"LINEAR","output":29},{"input":28,"interpolation":"LINEAR","output":30},{"input":28,"interpolation":"LINEAR","output":31},{"input":32,"interpolation":"LINEAR","output":33},{"input":32,"interpolation":"LINEAR","output":34},{"input":32,"interpolation":"LINEAR","output":35},{"input":36,"interpolation":"LINEAR","output":37},{"input":36,"interpolation":"LINEAR","output":38},{"input":36,"interpolation":"LINEAR","output":39},{"input":40,"interpolation":"LINEAR","output":41},{"input":40,"interpolation":"LINEAR","output":42},{"input":40,"interpolation":"LINEAR","output":43}],"name":"All Animations"}],"skins":[{"inverseBindMatrices":7,"skeleton":1,"joints":[1,2,3,4,5,6,7,8,9,10,11,12,13,14,15,16,17,18],"name":"skeleton #0"}]}