{"asset":{"version":"2.0","generator":"babylon.js glTF exporter for   v"},"scene":0,"scenes":[{"nodes":[0,1,14],"extensions":{}}],"nodes":[{"skin":0,"mesh":0,"translation":[0.0,0.0,0.0],"rotation":[0.0,0.0,0.0,1.0],"scale":[1.0,1.0,1.0],"name":"Hair"},{"children":[2,4,9],"translation":[-5.701884E-10,0.035633564,0.0130443918],"rotation":[-0.07062651,0.0706270039,0.703570843,0.7035708],"scale":[1.0,1.00000012,1.0],"name":"Bone001"},{"children":[3],"translation":[14.79105,-2.45324532E-06,3.73646617E-06],"rotation":[-2.189879E-07,-0.395417064,-9.427477E-08,0.9185017],"scale":[1.0,1.0,1.0],"name":"Bone002"},{"translation":[8.915544,1.74677871E-06,0.0],"rotation":[-1.69406589E-21,0.0,0.0,1.0],"scale":[1.00000024,1.0,1.00000024],"name":"Bone003"},{"children":[5],"translation":[14.791049,-4.65657664E-08,-7.82310963E-08],"rotation":[0.433579475,0.461252719,0.558577538,0.5359533],"scale":[0.99999994,1.0,1.00000012],"name":"Bone004"},{"children":[6],"translation":[9.856241,-2.38418579E-07,8.583069E-06],"rotation":[0.05464591,0.125699684,-0.29569912,0.945397],"scale":[1.00000024,1.00000012,1.00000036],"name":"Bone005"},{"children":[7],"translation":[5.30041265,-9.298325E-06,0.0],"rotation":[2.40371278E-08,0.04477998,7.18466E-07,0.9989969],"scale":[0.9999998,1.00000012,0.9999998],"name":"Bone006"},{"children":[8],"translation":[4.430153,-4.76837158E-07,1.90734863E-06],"rotation":[2.1591994E-08,-0.0228697378,-7.44766E-07,0.9997385],"scale":[0.9999997,0.99999994,0.9999997],"name":"Bone007"},{"translation":[4.78449535,-1.90734863E-06,-1.90734863E-06],"rotation":[4.565037E-09,-8.881784E-16,-2.01741983E-08,1.0],"scale":[1.00000012,1.00000012,1.00000024],"name":"Bone008"},{"children":[10],"translation":[14.791049,6.8359077E-06,-7.82310963E-08],"rotation":[-0.526655555,0.5671066,0.471840352,-0.422363251],"scale":[1.00000012,0.9999999,1.00000012],"name":"Bone009"},{"children":[11],"translation":[9.738406,-1.78813934E-05,0.0],"rotation":[-0.0411089,-0.0445478447,-0.297881335,0.952676356],"scale":[1.0,1.00000012,0.9999999],"name":"Bone010"},{"children":[12],"translation":[5.21753025,1.95503235E-05,9.536743E-06],"rotation":[-7.294545E-08,-0.04079139,-4.05811443E-06,0.9991677],"scale":[1.0,1.0,1.00000036],"name":"Bone011"},{"children":[13],"translation":[4.047474,0.0,1.90734863E-06],"rotation":[4.22235246E-07,-0.135269269,2.19104936E-06,0.990808845],"scale":[0.99999994,1.0,0.9999997],"name":"Bone012"},{"translation":[5.17338943,-2.38418579E-07,3.81469727E-06],"rotation":[-4.68031347E-09,-8.881784E-16,-5.46447554E-09,1.0],"scale":[0.99999994,0.99999994,1.0],"name":"Bone013"},{"translation":[0.0,0.0,0.0],"rotation":[0.0,0.0,0.0,1.0],"scale":[1.0,1.0,1.0],"name":"Default light"}],"meshes":[{"primitives":[{"attributes":{"POSITION":1,"NORMAL":2,"COLOR_0":3,"TEXCOORD_0":4,"JOINTS_0":5,"WEIGHTS_0":6},"indices":0,"mode":4,"material":0}],"name":"Hair"}],"accessors":[{"bufferView":0,"componentType":5123,"count":13044,"type":"SCALAR","name":"accessorIndices"},{"bufferView":1,"componentType":5126,"count":13044,"max":[23.50478,24.2369976,15.1632385],"min":[-23.5047855,0.8772,-15.9801989],"type":"VEC3","name":"accessorPositions"},{"bufferView":1,"byteOffset":156528,"componentType":5126,"count":13044,"type":"VEC3","name":"accessorNormals"},{"bufferView":2,"componentType":5126,"count":13044,"type":"VEC4","name":"accessorColors"},{"bufferView":3,"componentType":5126,"count":13044,"type":"VEC2","name":"accessorUVs"},{"bufferView":4,"componentType":5123,"count":13044,"type":"VEC4","name":"accessorJoints"},{"bufferView":2,"byteOffset":208704,"componentType":5126,"count":13044,"type":"VEC4","name":"accessorWeights"},{"bufferView":5,"componentType":5126,"count":13,"type":"MAT4","name":"accessorInverseBindMatrices"},{"bufferView":6,"componentType":5126,"count":99,"max":[4.16666651],"min":[0.0],"type":"SCALAR","name":"accessorAnimationInput"},{"bufferView":7,"componentType":5126,"count":99,"type":"VEC3","name":"accessorAnimationPositions"},{"bufferView":8,"componentType":5126,"count":99,"type":"VEC4","name":"accessorAnimationRotations"},{"bufferView":7,"byteOffset":1188,"componentType":5126,"count":99,"type":"VEC3","name":"accessorAnimationScales"},{"bufferView":6,"byteOffset":396,"componentType":5126,"count":98,"max":[4.16666651],"min":[0.0],"type":"SCALAR","name":"accessorAnimationInput"},{"bufferView":7,"byteOffset":2376,"componentType":5126,"count":98,"type":"VEC3","name":"accessorAnimationPositions"},{"bufferView":8,"byteOffset":1584,"componentType":5126,"count":98,"type":"VEC4","name":"accessorAnimationRotations"},{"bufferView":7,"byteOffset":3552,"componentType":5126,"count":98,"type":"VEC3","name":"accessorAnimationScales"},{"bufferView":6,"byteOffset":788,"componentType":5126,"count":98,"max":[4.16666651],"min":[0.0],"type":"SCALAR","name":"accessorAnimationInput"},{"bufferView":7,"byteOffset":4728,"componentType":5126,"count":98,"type":"VEC3","name":"accessorAnimationPositions"},{"bufferView":8,"byteOffset":3152,"componentType":5126,"count":98,"type":"VEC4","name":"accessorAnimationRotations"},{"bufferView":7,"byteOffset":5904,"componentType":5126,"count":98,"type":"VEC3","name":"accessorAnimationScales"},{"bufferView":6,"byteOffset":1180,"componentType":5126,"count":98,"max":[4.16666651],"min":[0.0],"type":"SCALAR","name":"accessorAnimationInput"},{"bufferView":7,"byteOffset":7080,"componentType":5126,"count":98,"type":"VEC3","name":"accessorAnimationPositions"},{"bufferView":8,"byteOffset":4720,"componentType":5126,"count":98,"type":"VEC4","name":"accessorAnimationRotations"},{"bufferView":7,"byteOffset":8256,"componentType":5126,"count":98,"type":"VEC3","name":"accessorAnimationScales"},{"bufferView":6,"byteOffset":1572,"componentType":5126,"count":99,"max":[4.16666651],"min":[0.0],"type":"SCALAR","name":"accessorAnimationInput"},{"bufferView":7,"byteOffset":9432,"componentType":5126,"count":99,"type":"VEC3","name":"accessorAnimationPositions"},{"bufferView":8,"byteOffset":6288,"componentType":5126,"count":99,"type":"VEC4","name":"accessorAnimationRotations"},{"bufferView":7,"byteOffset":10620,"componentType":5126,"count":99,"type":"VEC3","name":"accessorAnimationScales"},{"bufferView":6,"byteOffset":1968,"componentType":5126,"count":98,"max":[4.16666651],"min":[0.0],"type":"SCALAR","name":"accessorAnimationInput"},{"bufferView":7,"byteOffset":11808,"componentType":5126,"count":98,"type":"VEC3","name":"accessorAnimationPositions"},{"bufferView":8,"byteOffset":7872,"componentType":5126,"count":98,"type":"VEC4","name":"accessorAnimationRotations"},{"bufferView":7,"byteOffset":12984,"componentType":5126,"count":98,"type":"VEC3","name":"accessorAnimationScales"},{"bufferView":6,"byteOffset":2360,"componentType":5126,"count":98,"max":[4.16666651],"min":[0.0],"type":"SCALAR","name":"accessorAnimationInput"},{"bufferView":7,"byteOffset":14160,"componentType":5126,"count":98,"type":"VEC3","name":"accessorAnimationPositions"},{"bufferView":8,"byteOffset":9440,"componentType":5126,"count":98,"type":"VEC4","name":"accessorAnimationRotations"},{"bufferView":7,"byteOffset":15336,"componentType":5126,"count":98,"type":"VEC3","name":"accessorAnimationScales"},{"bufferView":6,"byteOffset":2752,"componentType":5126,"count":98,"max":[4.16666651],"min":[0.0],"type":"SCALAR","name":"accessorAnimationInput"},{"bufferView":7,"byteOffset":16512,"componentType":5126,"count":98,"type":"VEC3","name":"accessorAnimationPositions"},{"bufferView":8,"byteOffset":11008,"componentType":5126,"count":98,"type":"VEC4","name":"accessorAnimationRotations"},{"bufferView":7,"byteOffset":17688,"componentType":5126,"count":98,"type":"VEC3","name":"accessorAnimationScales"}],"bufferViews":[{"buffer":0,"byteLength":26088,"name":"bufferViewScalar"},{"buffer":0,"byteOffset":26088,"byteLength":313056,"byteStride":12,"name":"bufferViewFloatVec3"},{"buffer":0,"byteOffset":339144,"byteLength":417408,"byteStride":16,"name":"bufferViewFloatVec4"},{"buffer":0,"byteOffset":756552,"byteLength":104352,"byteStride":8,"name":"bufferViewFloatVec2"},{"buffer":0,"byteOffset":860904,"byteLength":104352,"byteStride":8,"name":"bufferViewUnsignedShortVec4"},{"buffer":0,"byteOffset":965256,"byteLength":832,"name":"bufferViewFloatMat4"},{"buffer":0,"byteOffset":966088,"byteLength":3144,"name":"bufferViewAnimationFloatScalar"},{"buffer":0,"byteOffset":969232,"byteLength":18864,"name":"bufferViewAnimationFloatVec3"},{"buffer":0,"byteOffset":988096,"byteLength":12576,"name":"bufferViewAnimationFloatVec4"}],"buffers":[{"uri":"DuJiaoShou.bin","byteLength":1000672}],"materials":[{"pbrMetallicRoughness":{"baseColorFactor":[1.0,1.0,1.0,1.0],"baseColorTexture":{"index":0,"texCoord":0},"metallicFactor":0.0,"roughnessFactor":0.450053632},"emissiveFactor":[0.0,0.0,0.0],"alphaMode":"BLEND","name":"Hair"}],"textures":[{"sampler":0,"source":0,"name":"Hair_baseColor.png"}],"images":[{"uri":"Hair_baseColor.png"}],"samplers":[{"magFilter":9729,"minFilter":9987,"wrapS":10497,"wrapT":10497}],"animations":[{"channels":[{"sampler":0,"target":{"node":5,"path":"translation"}},{"sampler":1,"target":{"node":5,"path":"rotation"}},{"sampler":2,"target":{"node":5,"path":"scale"}},{"sampler":3,"target":{"node":6,"path":"translation"}},{"sampler":4,"target":{"node":6,"path":"rotation"}},{"sampler":5,"target":{"node":6,"path":"scale"}},{"sampler":6,"target":{"node":7,"path":"translation"}},{"sampler":7,"target":{"node":7,"path":"rotation"}},{"sampler":8,"target":{"node":7,"path":"scale"}},{"sampler":9,"target":{"node":8,"path":"translation"}},{"sampler":10,"target":{"node":8,"path":"rotation"}},{"sampler":11,"target":{"node":8,"path":"scale"}},{"sampler":12,"target":{"node":10,"path":"translation"}},{"sampler":13,"target":{"node":10,"path":"rotation"}},{"sampler":14,"target":{"node":10,"path":"scale"}},{"sampler":15,"target":{"node":11,"path":"translation"}},{"sampler":16,"target":{"node":11,"path":"rotation"}},{"sampler":17,"target":{"node":11,"path":"scale"}},{"sampler":18,"target":{"node":12,"path":"translation"}},{"sampler":19,"target":{"node":12,"path":"rotation"}},{"sampler":20,"target":{"node":12,"path":"scale"}},{"sampler":21,"target":{"node":13,"path":"translation"}},{"sampler":22,"target":{"node":13,"path":"rotation"}},{"sampler":23,"target":{"node":13,"path":"scale"}}],"samplers":[{"input":8,"interpolation":"LINEAR","output":9},{"input":8,"interpolation":"LINEAR","output":10},{"input":8,"interpolation":"LINEAR","output":11},{"input":12,"interpolation":"LINEAR","output":13},{"input":12,"interpolation":"LINEAR","output":14},{"input":12,"interpolation":"LINEAR","output":15},{"input":16,"interpolation":"LINEAR","output":17},{"input":16,"interpolation":"LINEAR","output":18},{"input":16,"interpolation":"LINEAR","output":19},{"input":20,"interpolation":"LINEAR","output":21},{"input":20,"interpolation":"LINEAR","output":22},{"input":20,"interpolation":"LINEAR","output":23},{"input":24,"interpolation":"LINEAR","output":25},{"input":24,"interpolation":"LINEAR","output":26},{"input":24,"interpolation":"LINEAR","output":27},{"input":28,"interpolation":"LINEAR","output":29},{"input":28,"interpolation":"LINEAR","output":30},{"input":28,"interpolation":"LINEAR","output":31},{"input":32,"interpolation":"LINEAR","output":33},{"input":32,"interpolation":"LINEAR","output":34},{"input":32,"interpolation":"LINEAR","output":35},{"input":36,"interpolation":"LINEAR","output":37},{"input":36,"interpolation":"LINEAR","output":38},{"input":36,"interpolation":"LINEAR","output":39}],"name":"All Animations"}],"skins":[{"inverseBindMatrices":7,"skeleton":1,"joints":[1,2,3,4,5,6,7,8,9,10,11,12,13],"name":"skeleton #0"}]}