{"asset":{"version":"2.0","generator":"babylon.js glTF exporter for   v"},"scene":0,"scenes":[{"nodes":[0,1],"extensions":{}}],"nodes":[{"mesh":0,"translation":[0.0,0.0,0.0],"rotation":[0.0,0.0,0.0,1.0],"scale":[1.0,1.0,1.0],"name":"default009"},{"translation":[0.0,0.0,0.0],"rotation":[0.0,0.0,0.0,1.0],"scale":[1.0,1.0,1.0],"name":"Default light"}],"meshes":[{"primitives":[{"attributes":{"POSITION":1,"NORMAL":2,"TEXCOORD_0":3},"indices":0,"mode":4,"material":0}],"name":"default009"}],"accessors":[{"bufferView":0,"componentType":5123,"count":17100,"type":"SCALAR","name":"accessorIndices"},{"bufferView":1,"componentType":5126,"count":17100,"max":[49331.4,49331.46,49331.4648],"min":[-49331.4023,-49331.4648,-49331.4648],"type":"VEC3","name":"accessorPositions"},{"bufferView":1,"byteOffset":205200,"componentType":5126,"count":17100,"type":"VEC3","name":"accessorNormals"},{"bufferView":2,"componentType":5126,"count":17100,"type":"VEC2","name":"accessorUVs"}],"bufferViews":[{"buffer":0,"byteLength":34200,"name":"bufferViewScalar"},{"buffer":0,"byteOffset":34200,"byteLength":410400,"byteStride":12,"name":"bufferViewFloatVec3"},{"buffer":0,"byteOffset":444600,"byteLength":136800,"byteStride":8,"name":"bufferViewFloatVec2"}],"buffers":[{"uri":"ShaiZi.bin","byteLength":581400}],"materials":[{"pbrMetallicRoughness":{"baseColorFactor":[0.294,0.294,0.294,1.0],"metallicFactor":0.0,"roughnessFactor":0.450053632},"emissiveFactor":[0.0,0.0,0.0],"alphaMode":"OPAQUE","name":"22___Default"}]}