{"asset":{"version":"2.0","generator":"babylon.js glTF exporter for   v"},"scene":0,"scenes":[{"nodes":[0,1],"extensions":{}}],"nodes":[{"mesh":0,"translation":[-2.0556854E-09,10.2162828,0.04703045],"rotation":[0.0,0.0,0.0,1.0],"scale":[1.0,1.0,1.0],"name":"hair"},{"translation":[0.0,0.0,0.0],"rotation":[0.0,0.0,0.0,1.0],"scale":[1.0,1.0,1.0],"name":"Default light"}],"meshes":[{"primitives":[{"attributes":{"POSITION":1,"NORMAL":2,"COLOR_0":3,"TEXCOORD_0":4},"indices":0,"mode":4,"material":0}],"name":"hair"}],"accessors":[{"bufferView":0,"componentType":5123,"count":12351,"type":"SCALAR","name":"accessorIndices"},{"bufferView":1,"componentType":5126,"count":12351,"max":[29.1406651,19.3730087,3.230216],"min":[-29.1406689,-10.1327848,-29.094017],"type":"VEC3","name":"accessorPositions"},{"bufferView":1,"byteOffset":148212,"componentType":5126,"count":12351,"type":"VEC3","name":"accessorNormals"},{"bufferView":2,"componentType":5126,"count":12351,"type":"VEC4","name":"accessorColors"},{"bufferView":3,"componentType":5126,"count":12351,"type":"VEC2","name":"accessorUVs"}],"bufferViews":[{"buffer":0,"byteLength":24704,"name":"bufferViewScalar"},{"buffer":0,"byteOffset":24704,"byteLength":296424,"byteStride":12,"name":"bufferViewFloatVec3"},{"buffer":0,"byteOffset":321128,"byteLength":197616,"byteStride":16,"name":"bufferViewFloatVec4"},{"buffer":0,"byteOffset":518744,"byteLength":98808,"byteStride":8,"name":"bufferViewFloatVec2"}],"buffers":[{"uri":"Hair_baseColor.bin","byteLength":617552}],"materials":[{"pbrMetallicRoughness":{"baseColorFactor":[1.0,1.0,1.0,1.0],"baseColorTexture":{"index":0,"texCoord":0},"metallicFactor":0.0,"roughnessFactor":0.450053632},"emissiveFactor":[0.0,0.0,0.0],"alphaMode":"BLEND","name":"Hair_baseColor"}],"textures":[{"sampler":0,"source":0,"name":"Hair_baseColor_baseColor.png"}],"images":[{"uri":"Hair_baseColor_baseColor.png"}],"samplers":[{"magFilter":9729,"minFilter":9987,"wrapS":10497,"wrapT":10497}]}